<!-- Generated by readme-aura https://github.com/collectioneur/readme-aura -->
<svg width="760" height="110" viewBox="0 0 760 110" xmlns="http://www.w3.org/2000/svg"><defs><clipPath id="satori_bc-id"><path x="0" y="0" width="760" height="110" d="M16,0 h728 a16,16 0 0 1 16,16 v78 a16,16 0 0 1 -16,16 h-728 a16,16 0 0 1 -16,-16 v-78 a16,16 0 0 1 16,-16"/></clipPath></defs><mask id="satori_om-id"><rect x="1" y="1" width="758" height="108" fill="#fff"/><path width="760" height="110" fill="none" stroke="#000" stroke-width="2" d="M4.686,4.686 A16,16 0 0 1 16,0 h728 a16,16 0 0 1 16,16 v78 a16,16 0 0 1 -16,16 h-728 a16,16 0 0 1 -16,-16 v-78 A16,16 0 0 1 4.686,4.686"/></mask><path x="0" y="0" width="760" height="110" fill="#0d0d0d" d="M16,0 h728 a16,16 0 0 1 16,16 v78 a16,16 0 0 1 -16,16 h-728 a16,16 0 0 1 -16,-16 v-78 a16,16 0 0 1 16,-16"/><path width="760" height="110" clip-path="url(#satori_bc-id)" fill="none" stroke="rgba(255,255,255,0.12)" stroke-width="2" d="M4.686,4.686 A16,16 0 0 1 16,0 h728 a16,16 0 0 1 16,16 v78 a16,16 0 0 1 -16,16 h-728 a16,16 0 0 1 -16,-16 v-78 A16,16 0 0 1 4.686,4.686"/><mask id="satori_om-id-0"><rect x="33" y="23" width="694" height="15" fill="#fff"/></mask><mask id="satori_om-id-0-0"><rect x="33" y="23" width="90" height="15" fill="#fff"/></mask><g  ><path fill="rgba(220,220,220,0.8)" d="M36.3 35.1L36.3 35.1Q35.0 35.1 34.2 34.4Q33.4 33.7 33.4 32.4L33.4 32.4L33.4 31.9L35.2 31.9L35.2 32.4Q35.2 33.0 35.5 33.4Q35.8 33.7 36.3 33.7L36.3 33.7Q36.8 33.7 37.1 33.4Q37.5 33.0 37.5 32.4L37.5 32.4L37.5 26.3L39.2 26.3L39.2 32.4Q39.2 33.7 38.4 34.4Q37.7 35.1 36.3 35.1ZM42.6 35.1L42.6 35.1Q42.0 35.1 41.5 34.9Q41.0 34.7 40.7 34.3Q40.4 33.8 40.4 33.2L40.4 33.2Q40.4 32.6 40.6 32.3Q40.8 31.9 41.2 31.7Q41.5 31.4 42.0 31.3Q42.4 31.2 42.9 31.2L42.9 31.2Q43.5 31.1 43.8 31.0Q44.2 31.0 44.3 30.9Q44.5 30.8 44.5 30.6L44.5 30.6L44.5 30.5Q44.5 30.3 44.4 30.1Q44.2 29.9 44.0 29.8Q43.8 29.7 43.4 29.7L43.4 29.7Q43.1 29.7 42.9 29.8Q42.6 29.9 42.4 30.0Q42.3 30.2 42.2 30.4L42.2 30.4L40.6 30.2Q40.8 29.6 41.2 29.2Q41.6 28.8 42.1 28.6Q42.7 28.4 43.5 28.4L43.5 28.4Q44.0 28.4 44.5 28.5Q45.0 28.6 45.4 28.9Q45.8 29.1 46.0 29.6Q46.2 30.0 46.2 30.6L46.2 30.6L46.2 35L44.6 35L44.6 34.1L44.5 34.1Q44.3 34.4 44.1 34.6Q43.8 34.9 43.5 35.0Q43.1 35.1 42.6 35.1ZM43.1 33.9L43.1 33.9Q43.5 33.9 43.8 33.7Q44.1 33.6 44.3 33.3Q44.5 33.0 44.5 32.7L44.5 32.7L44.5 31.9Q44.4 32.0 44.3 32.1Q44.1 32.1 43.9 32.1Q43.7 32.2 43.5 32.2Q43.3 32.2 43.2 32.2L43.2 32.2Q42.9 32.3 42.6 32.4Q42.4 32.5 42.2 32.7Q42.1 32.8 42.1 33.1L42.1 33.1Q42.1 33.4 42.2 33.5Q42.4 33.7 42.6 33.8Q42.8 33.9 43.1 33.9ZM51.6 35L49.6 35L47.2 28.4L49.0 28.4L50.1 31.8Q50.3 32.5 50.5 33.1L50.5 33.1Q50.5 33.4 50.6 33.6L50.6 33.6Q50.7 33.4 50.7 33.1L50.7 33.1Q50.9 32.5 51.1 31.8L51.1 31.8L52.1 28.4L54.0 28.4L51.6 35ZM56.8 35.1L56.8 35.1Q56.1 35.1 55.6 34.9Q55.1 34.7 54.9 34.3Q54.6 33.8 54.6 33.2L54.6 33.2Q54.6 32.6 54.8 32.3Q55.0 31.9 55.3 31.7Q55.7 31.4 56.1 31.3Q56.6 31.2 57.0 31.2L57.0 31.2Q57.6 31.1 58.0 31.0Q58.3 31.0 58.5 30.9Q58.6 30.8 58.6 30.6L58.6 30.6L58.6 30.5Q58.6 30.3 58.5 30.1Q58.4 29.9 58.2 29.8Q57.9 29.7 57.6 29.7L57.6 29.7Q57.3 29.7 57.0 29.8Q56.8 29.9 56.6 30.0Q56.4 30.2 56.4 30.4L56.4 30.4L54.8 30.2Q54.9 29.6 55.3 29.2Q55.7 28.8 56.3 28.6Q56.9 28.4 57.6 28.4L57.6 28.4Q58.1 28.4 58.6 28.5Q59.1 28.6 59.5 28.9Q59.9 29.1 60.2 29.6Q60.4 30.0 60.4 30.6L60.4 30.6L60.4 35L58.7 35L58.7 34.1L58.7 34.1Q58.5 34.4 58.2 34.6Q58.0 34.9 57.6 35.0Q57.2 35.1 56.8 35.1ZM57.3 33.9L57.3 33.9Q57.7 33.9 58.0 33.7Q58.3 33.6 58.5 33.3Q58.6 33.0 58.6 32.7L58.6 32.7L58.6 31.9Q58.6 32.0 58.4 32.1Q58.3 32.1 58.1 32.1Q57.9 32.2 57.7 32.2Q57.5 32.2 57.3 32.2L57.3 32.2Q57.0 32.3 56.8 32.4Q56.5 32.5 56.4 32.7Q56.3 32.8 56.3 33.1L56.3 33.1Q56.3 33.4 56.4 33.5Q56.5 33.7 56.7 33.8Q57.0 33.9 57.3 33.9ZM65.1 35.1L65.1 35.1Q64.1 35.1 63.3 34.8Q62.5 34.5 62.1 33.9Q61.7 33.2 61.6 32.3L61.6 32.3L63.4 32.3Q63.4 32.7 63.6 33.0Q63.9 33.3 64.3 33.5Q64.6 33.6 65.1 33.6L65.1 33.6Q65.6 33.6 66.0 33.5Q66.3 33.3 66.5 33.1Q66.7 32.8 66.7 32.5L66.7 32.5Q66.7 32.2 66.5 32.0Q66.3 31.8 66.0 31.7Q65.7 31.5 65.2 31.4L65.2 31.4L64.2 31.2Q63.1 30.9 62.5 30.3Q61.9 29.7 61.9 28.8L61.9 28.8Q61.9 28.0 62.3 27.4Q62.7 26.8 63.5 26.5Q64.2 26.2 65.2 26.2L65.2 26.2Q66.1 26.2 66.8 26.5Q67.6 26.8 68.0 27.4Q68.4 28.0 68.4 28.8L68.4 28.8L66.7 28.8Q66.6 28.2 66.2 27.9Q65.8 27.7 65.1 27.7L65.1 27.7Q64.7 27.7 64.4 27.8Q64.0 27.9 63.9 28.1Q63.7 28.4 63.7 28.7L63.7 28.7Q63.7 29.0 63.9 29.2Q64.1 29.4 64.4 29.5Q64.7 29.7 65.1 29.8L65.1 29.8L65.9 30.0Q66.4 30.1 66.9 30.3Q67.4 30.5 67.8 30.8Q68.1 31.1 68.3 31.5Q68.5 32.0 68.5 32.5L68.5 32.5Q68.5 33.3 68.1 33.9Q67.7 34.5 66.9 34.8Q66.2 35.1 65.1 35.1ZM72.7 35.1L72.7 35.1Q71.7 35.1 71.0 34.7Q70.3 34.3 69.9 33.5Q69.5 32.8 69.5 31.8L69.5 31.8Q69.5 30.7 69.9 30.0Q70.3 29.2 71.0 28.8Q71.7 28.4 72.7 28.4L72.7 28.4Q73.3 28.4 73.8 28.5Q74.2 28.7 74.6 29.0Q75.0 29.2 75.3 29.6Q75.5 30.0 75.6 30.5L75.6 30.5L74.0 30.9Q73.9 30.6 73.8 30.4Q73.7 30.2 73.5 30.0Q73.4 29.9 73.2 29.8Q72.9 29.8 72.7 29.8L72.7 29.8Q72.2 29.8 71.9 30.0Q71.6 30.3 71.4 30.7Q71.3 31.2 71.3 31.7L71.3 31.7Q71.3 32.3 71.4 32.8Q71.6 33.2 71.9 33.5Q72.2 33.7 72.7 33.7L72.7 33.7Q72.9 33.7 73.2 33.7Q73.4 33.6 73.5 33.4Q73.7 33.3 73.8 33.1Q73.9 32.9 74.0 32.6L74.0 32.6L75.6 32.9Q75.5 33.4 75.3 33.8Q75.0 34.2 74.6 34.5Q74.3 34.8 73.8 35.0Q73.3 35.1 72.7 35.1ZM78.6 35L76.8 35L76.8 28.4L78.5 28.4L78.5 29.6L78.6 29.6Q78.8 29.0 79.2 28.7Q79.6 28.4 80.2 28.4L80.2 28.4Q80.3 28.4 80.5 28.4Q80.6 28.4 80.7 28.4L80.7 28.4L80.7 30.0Q80.6 29.9 80.4 29.9Q80.2 29.9 80.0 29.9L80.0 29.9Q79.6 29.9 79.2 30.1Q78.9 30.2 78.7 30.6Q78.6 30.9 78.6 31.3L78.6 31.3L78.6 35ZM83.5 35L81.7 35L81.7 28.4L83.5 28.4L83.5 35ZM82.6 27.6L82.6 27.6Q82.2 27.6 81.9 27.3Q81.6 27.1 81.6 26.7L81.6 26.7Q81.6 26.3 81.9 26.1Q82.2 25.8 82.6 25.8L82.6 25.8Q83.0 25.8 83.3 26.0Q83.5 26.3 83.5 26.7L83.5 26.7Q83.5 27.1 83.3 27.3Q83.0 27.6 82.6 27.6ZM86.7 37.4L84.9 37.4L84.9 28.4L86.7 28.4L86.7 29.6L86.8 29.6Q86.9 29.3 87.1 29.0Q87.3 28.7 87.7 28.6Q88.1 28.4 88.6 28.4L88.6 28.4Q89.4 28.4 90.0 28.7Q90.6 29.1 90.9 29.9Q91.3 30.6 91.3 31.7L91.3 31.7Q91.3 32.8 90.9 33.6Q90.6 34.3 90.0 34.7Q89.4 35.1 88.6 35.1L88.6 35.1Q88.1 35.1 87.7 34.9Q87.3 34.7 87.1 34.5Q86.9 34.2 86.8 34.0L86.8 34.0L86.7 34.0L86.7 37.4ZM88.1 33.7L88.1 33.7Q88.5 33.7 88.8 33.4Q89.2 33.2 89.3 32.8Q89.5 32.3 89.5 31.7L89.5 31.7Q89.5 31.2 89.3 30.7Q89.2 30.3 88.9 30.0Q88.5 29.8 88.1 29.8L88.1 29.8Q87.6 29.8 87.3 30.0Q87.0 30.3 86.8 30.7Q86.7 31.1 86.7 31.7L86.7 31.7Q86.7 32.3 86.8 32.8Q87 33.2 87.3 33.5Q87.6 33.7 88.1 33.7ZM94.5 28.4L95.8 28.4L95.8 29.8L94.5 29.8L94.5 33.1Q94.5 33.4 94.7 33.5Q94.8 33.7 95.1 33.7L95.1 33.7Q95.2 33.7 95.4 33.7Q95.6 33.6 95.7 33.6L95.7 33.6L95.9 34.9Q95.7 35.0 95.4 35.1Q95.1 35.1 94.8 35.1L94.8 35.1Q93.8 35.1 93.3 34.6Q92.8 34.1 92.8 33.2L92.8 33.2L92.8 29.8L91.9 29.8L91.9 28.4L92.8 28.4L92.8 26.9L94.5 26.9L94.5 28.4Z "/></g><mask id="satori_om-id-0-1"><rect x="133" y="27" width="480" height="8" fill="#fff"/></mask><path x="133" y="27" width="480" height="8" fill="rgba(255,255,255,0.08)" d="M137,27 h472 a4,4 0 0 1 4,4 v0 a4,4 0 0 1 -4,4 h-472 a4,4 0 0 1 -4,-4 v0 a4,4 0 0 1 4,-4"/><mask id="satori_om-id-0-1-0"><rect x="133" y="27" width="278" height="8" fill="#fff"/></mask><path x="133" y="27" width="278" height="8" fill="#ffffff" d="M137,27 h270 a4,4 0 0 1 4,4 v0 a4,4 0 0 1 -4,4 h-270 a4,4 0 0 1 -4,-4 v0 a4,4 0 0 1 4,-4"/><mask id="satori_om-id-0-2"><rect x="623" y="23" width="27" height="15" fill="#fff"/></mask><g  ><path fill="rgba(200,200,200,0.6)" d="M626.5 35.1L626.5 35.1Q625.7 35.1 625.1 34.8Q624.5 34.5 624.1 34.0Q623.8 33.5 623.8 32.8L623.8 32.8L624.8 32.8Q624.9 33.2 625.1 33.5Q625.3 33.8 625.7 34.0Q626.1 34.1 626.5 34.1L626.5 34.1Q627.0 34.1 627.4 33.9Q627.8 33.6 628.1 33.2Q628.3 32.8 628.3 32.2L628.3 32.2Q628.3 31.7 628.1 31.2Q627.8 30.8 627.4 30.5Q627.0 30.3 626.4 30.3L626.4 30.3Q626.0 30.3 625.6 30.4Q625.2 30.5 624.9 30.7L624.9 30.7L623.9 30.6L624.4 26.3L629.0 26.3L629.0 27.2L625.3 27.2L625.0 29.8L625.1 29.8Q625.4 29.6 625.8 29.4Q626.2 29.3 626.6 29.3L626.6 29.3Q627.2 29.3 627.7 29.5Q628.2 29.7 628.6 30.1Q629.0 30.5 629.2 31.0Q629.4 31.6 629.4 32.2L629.4 32.2Q629.4 33.0 629.0 33.7Q628.6 34.4 628.0 34.7Q627.3 35.1 626.5 35.1ZM633.8 35.1L633.8 35.1Q632.9 35.1 632.3 34.8Q631.6 34.5 631.2 33.9Q630.8 33.4 630.8 32.7L630.8 32.7Q630.8 32.1 631.1 31.7Q631.3 31.2 631.7 30.9Q632.1 30.6 632.5 30.5L632.5 30.5L632.5 30.4Q631.9 30.3 631.5 29.7Q631.2 29.2 631.2 28.5L631.2 28.5Q631.2 27.8 631.5 27.3Q631.8 26.8 632.4 26.5Q633.0 26.2 633.8 26.2L633.8 26.2Q634.6 26.2 635.2 26.5Q635.8 26.8 636.2 27.3Q636.5 27.8 636.5 28.5L636.5 28.5Q636.5 29.2 636.1 29.7Q635.7 30.3 635.1 30.4L635.1 30.4L635.1 30.5Q635.6 30.6 636.0 30.9Q636.4 31.2 636.6 31.7Q636.8 32.1 636.8 32.7L636.8 32.7Q636.8 33.4 636.4 33.9Q636.1 34.5 635.4 34.8Q634.7 35.1 633.8 35.1ZM633.8 34.2L633.8 34.2Q634.4 34.2 634.8 34.0Q635.3 33.8 635.5 33.4Q635.7 33.1 635.7 32.6L635.7 32.6Q635.7 32.1 635.5 31.8Q635.2 31.4 634.8 31.2Q634.4 31.0 633.8 31.0L633.8 31.0Q633.3 31.0 632.8 31.2Q632.4 31.4 632.2 31.8Q631.9 32.1 631.9 32.6L631.9 32.6Q631.9 33.1 632.2 33.4Q632.4 33.8 632.8 34.0Q633.2 34.2 633.8 34.2ZM633.8 30.0L633.8 30.0Q634.3 30.0 634.6 29.8Q635.0 29.7 635.2 29.3Q635.4 29.0 635.4 28.6L635.4 28.6Q635.4 28.1 635.2 27.8Q635.0 27.5 634.7 27.3Q634.3 27.1 633.8 27.1L633.8 27.1Q633.3 27.1 633.0 27.3Q632.6 27.5 632.4 27.8Q632.2 28.1 632.2 28.6L632.2 28.6Q632.2 29.0 632.4 29.3Q632.6 29.7 633.0 29.8Q633.4 30.0 633.8 30.0ZM640.6 30.1L640.6 30.1Q640.1 30.1 639.7 29.9Q639.3 29.6 639.1 29.2Q638.9 28.8 638.9 28.4L638.9 28.4L638.9 27.9Q638.9 27.4 639.1 27.0Q639.3 26.6 639.7 26.4Q640.1 26.1 640.6 26.1L640.6 26.1Q641.2 26.1 641.5 26.4Q641.9 26.6 642.1 27.0Q642.3 27.4 642.3 27.9L642.3 27.9L642.3 28.4Q642.3 28.8 642.1 29.2Q641.9 29.6 641.5 29.9Q641.2 30.1 640.6 30.1ZM640.6 29.4L640.6 29.4Q641.1 29.4 641.2 29.1Q641.4 28.7 641.4 28.4L641.4 28.4L641.4 27.9Q641.4 27.5 641.2 27.2Q641.1 26.9 640.6 26.9L640.6 26.9Q640.2 26.9 640.0 27.2Q639.8 27.5 639.8 27.9L639.8 27.9L639.8 28.4Q639.8 28.7 640.0 29.1Q640.2 29.4 640.6 29.4ZM646.3 35.2L646.3 35.2Q645.7 35.2 645.3 34.9Q644.9 34.7 644.8 34.3Q644.6 33.9 644.6 33.4L644.6 33.4L644.6 32.9Q644.6 32.5 644.8 32.1Q645.0 31.7 645.3 31.4Q645.7 31.2 646.3 31.2L646.3 31.2Q646.8 31.2 647.2 31.4Q647.6 31.7 647.8 32.1Q648.0 32.5 648.0 32.9L648.0 32.9L648.0 33.4Q648.0 33.9 647.8 34.3Q647.6 34.7 647.2 34.9Q646.8 35.2 646.3 35.2ZM646.3 34.4L646.3 34.4Q646.7 34.4 646.9 34.1Q647.1 33.8 647.1 33.4L647.1 33.4L647.1 32.9Q647.1 32.6 646.9 32.2Q646.7 31.9 646.3 31.9L646.3 31.9Q645.8 31.9 645.6 32.2Q645.5 32.6 645.5 32.9L645.5 32.9L645.5 33.4Q645.5 33.8 645.6 34.1Q645.8 34.4 646.3 34.4ZM640.9 35L639.9 35L645.9 26.3L646.9 26.3L640.9 35Z "/></g><mask id="satori_om-id-1"><rect x="33" y="48" width="694" height="15" fill="#fff"/></mask><mask id="satori_om-id-1-0"><rect x="33" y="48" width="90" height="15" fill="#fff"/></mask><g  ><path fill="rgba(220,220,220,0.8)" d="M36.1 52.8L33.4 52.8L33.4 51.3L40.6 51.3L40.6 52.8L37.9 52.8L37.9 60L36.1 60L36.1 52.8ZM41.7 62.3L41.7 62.3L42.1 61.0L42.3 61.0Q42.7 61.1 43.0 61.1Q43.2 61.1 43.4 60.9Q43.6 60.7 43.6 60.4L43.6 60.4L43.7 60.0L41.2 53.4L43.1 53.4L44.2 56.8Q44.4 57.5 44.5 58.1L44.5 58.1Q44.5 58.4 44.6 58.6L44.6 58.6Q44.6 58.4 44.7 58.1L44.7 58.1Q44.8 57.5 45.1 56.8L45.1 56.8L46.2 53.4L48.0 53.4L45.3 60.8Q45.1 61.3 44.8 61.7Q44.4 62.1 44.0 62.3Q43.5 62.5 42.9 62.5L42.9 62.5Q42.5 62.5 42.2 62.4Q41.9 62.4 41.7 62.3ZM50.7 62.4L49.0 62.4L49.0 53.4L50.7 53.4L50.7 54.6L50.8 54.6Q50.9 54.3 51.1 54.0Q51.4 53.7 51.7 53.6Q52.1 53.4 52.7 53.4L52.7 53.4Q53.4 53.4 54.0 53.7Q54.6 54.1 55.0 54.9Q55.3 55.6 55.3 56.7L55.3 56.7Q55.3 57.8 55.0 58.6Q54.6 59.3 54.0 59.7Q53.4 60.1 52.7 60.1L52.7 60.1Q52.1 60.1 51.8 59.9Q51.4 59.7 51.1 59.5Q50.9 59.2 50.8 59.0L50.8 59.0L50.7 59.0L50.7 62.4ZM52.1 58.7L52.1 58.7Q52.6 58.7 52.9 58.4Q53.2 58.2 53.4 57.8Q53.5 57.3 53.5 56.7L53.5 56.7Q53.5 56.2 53.4 55.7Q53.2 55.3 52.9 55.0Q52.6 54.8 52.1 54.8L52.1 54.8Q51.7 54.8 51.3 55.0Q51.0 55.3 50.9 55.7Q50.7 56.1 50.7 56.7L50.7 56.7Q50.7 57.3 50.9 57.8Q51.0 58.2 51.4 58.5Q51.7 58.7 52.1 58.7ZM59.5 60.1L59.5 60.1Q58.5 60.1 57.8 59.7Q57.1 59.3 56.7 58.6Q56.3 57.8 56.3 56.8L56.3 56.8Q56.3 55.7 56.7 55.0Q57.0 54.2 57.8 53.8Q58.5 53.4 59.4 53.4L59.4 53.4Q60.1 53.4 60.6 53.6Q61.2 53.8 61.6 54.2Q62.0 54.6 62.3 55.2Q62.5 55.8 62.5 56.7L62.5 56.7L62.5 57.2L58.0 57.2Q58.0 57.7 58.2 58.0L58.2 58.0Q58.4 58.4 58.7 58.6Q59.1 58.8 59.5 58.8L59.5 58.8Q59.8 58.8 60.1 58.7Q60.4 58.6 60.5 58.5Q60.7 58.3 60.8 58.0L60.8 58.0L62.4 58.3Q62.2 58.9 61.8 59.3Q61.5 59.7 60.9 59.9Q60.3 60.1 59.5 60.1ZM58.0 56.1L58.0 56.1L60.8 56.1Q60.8 55.8 60.7 55.5L60.7 55.5Q60.5 55.1 60.2 54.9Q59.9 54.7 59.4 54.7L59.4 54.7Q59.0 54.7 58.7 54.9Q58.3 55.1 58.2 55.5L58.2 55.5Q58.1 55.7 58.0 56.1ZM66.9 60.1L66.9 60.1Q65.9 60.1 65.1 59.8Q64.3 59.5 63.9 58.9Q63.5 58.2 63.4 57.3L63.4 57.3L65.2 57.3Q65.2 57.7 65.4 58.0Q65.7 58.3 66.1 58.5Q66.4 58.6 66.9 58.6L66.9 58.6Q67.4 58.6 67.8 58.5Q68.1 58.3 68.3 58.1Q68.5 57.8 68.5 57.5L68.5 57.5Q68.5 57.2 68.3 57.0Q68.2 56.8 67.8 56.7Q67.5 56.5 67.0 56.4L67.0 56.4L66.0 56.2Q64.9 55.9 64.3 55.3Q63.7 54.7 63.7 53.8L63.7 53.8Q63.7 53.0 64.1 52.4Q64.5 51.8 65.3 51.5Q66.0 51.2 67.0 51.2L67.0 51.2Q67.9 51.2 68.6 51.5Q69.4 51.8 69.8 52.4Q70.2 53.0 70.2 53.8L70.2 53.8L68.5 53.8Q68.4 53.2 68.0 52.9Q67.6 52.7 66.9 52.7L66.9 52.7Q66.5 52.7 66.2 52.8Q65.8 52.9 65.7 53.1Q65.5 53.4 65.5 53.7L65.5 53.7Q65.5 54.0 65.7 54.2Q65.9 54.4 66.2 54.5Q66.5 54.7 66.9 54.8L66.9 54.8L67.7 55.0Q68.3 55.1 68.7 55.3Q69.2 55.5 69.6 55.8Q69.9 56.1 70.1 56.5Q70.3 57.0 70.3 57.5L70.3 57.5Q70.3 58.3 69.9 58.9Q69.5 59.5 68.8 59.8Q68.0 60.1 66.9 60.1ZM74.5 60.1L74.5 60.1Q73.5 60.1 72.8 59.7Q72.1 59.3 71.7 58.5Q71.3 57.8 71.3 56.8L71.3 56.8Q71.3 55.7 71.7 55.0Q72.1 54.2 72.8 53.8Q73.5 53.4 74.5 53.4L74.5 53.4Q75.1 53.4 75.6 53.5Q76.0 53.7 76.4 54.0Q76.8 54.2 77.1 54.6Q77.3 55.0 77.4 55.5L77.4 55.5L75.8 55.9Q75.7 55.6 75.6 55.4Q75.5 55.2 75.3 55.0Q75.2 54.9 75.0 54.8Q74.8 54.8 74.5 54.8L74.5 54.8Q74.0 54.8 73.7 55.0Q73.4 55.3 73.2 55.7Q73.1 56.2 73.1 56.7L73.1 56.7Q73.1 57.3 73.2 57.8Q73.4 58.2 73.7 58.5Q74.0 58.7 74.5 58.7L74.5 58.7Q74.8 58.7 75.0 58.7Q75.2 58.6 75.3 58.4Q75.5 58.3 75.6 58.1Q75.7 57.9 75.8 57.6L75.8 57.6L77.4 57.9Q77.3 58.4 77.1 58.8Q76.8 59.2 76.4 59.5Q76.1 59.8 75.6 60.0Q75.1 60.1 74.5 60.1ZM80.4 60L78.6 60L78.6 53.4L80.3 53.4L80.3 54.6L80.4 54.6Q80.6 54.0 81.0 53.7Q81.4 53.4 82.0 53.4L82.0 53.4Q82.1 53.4 82.3 53.4Q82.4 53.4 82.5 53.4L82.5 53.4L82.5 55.0Q82.4 54.9 82.2 54.9Q82.0 54.9 81.8 54.9L81.8 54.9Q81.4 54.9 81.1 55.1Q80.7 55.2 80.6 55.6Q80.4 55.9 80.4 56.3L80.4 56.3L80.4 60ZM85.3 60L83.5 60L83.5 53.4L85.3 53.4L85.3 60ZM84.4 52.6L84.4 52.6Q84.0 52.6 83.7 52.3Q83.4 52.1 83.4 51.7L83.4 51.7Q83.4 51.3 83.7 51.1Q84.0 50.8 84.4 50.8L84.4 50.8Q84.8 50.8 85.1 51.0Q85.3 51.3 85.3 51.7L85.3 51.7Q85.3 52.1 85.1 52.3Q84.8 52.6 84.4 52.6ZM88.5 62.4L86.8 62.4L86.8 53.4L88.5 53.4L88.5 54.6L88.6 54.6Q88.7 54.3 88.9 54.0Q89.1 53.7 89.5 53.6Q89.9 53.4 90.4 53.4L90.4 53.4Q91.2 53.4 91.8 53.7Q92.4 54.1 92.7 54.9Q93.1 55.6 93.1 56.7L93.1 56.7Q93.1 57.8 92.7 58.6Q92.4 59.3 91.8 59.7Q91.2 60.1 90.4 60.1L90.4 60.1Q89.9 60.1 89.5 59.9Q89.2 59.7 88.9 59.5Q88.7 59.2 88.6 59.0L88.6 59.0L88.5 59.0L88.5 62.4ZM89.9 58.7L89.9 58.7Q90.3 58.7 90.7 58.4Q91.0 58.2 91.1 57.8Q91.3 57.3 91.3 56.7L91.3 56.7Q91.3 56.2 91.1 55.7Q91.0 55.3 90.7 55.0Q90.3 54.8 89.9 54.8L89.9 54.8Q89.4 54.8 89.1 55.0Q88.8 55.3 88.6 55.7Q88.5 56.1 88.5 56.7L88.5 56.7Q88.5 57.3 88.6 57.8Q88.8 58.2 89.1 58.5Q89.4 58.7 89.9 58.7ZM96.3 53.4L97.6 53.4L97.6 54.8L96.3 54.8L96.3 58.1Q96.3 58.4 96.5 58.5Q96.6 58.7 96.9 58.7L96.9 58.7Q97.0 58.7 97.2 58.7Q97.4 58.6 97.5 58.6L97.5 58.6L97.8 59.9Q97.5 60.0 97.2 60.1Q96.9 60.1 96.6 60.1L96.6 60.1Q95.6 60.1 95.1 59.6Q94.6 59.1 94.6 58.2L94.6 58.2L94.6 54.8L93.7 54.8L93.7 53.4L94.6 53.4L94.6 51.9L96.3 51.9L96.3 53.4Z "/></g><mask id="satori_om-id-1-1"><rect x="133" y="52" width="480" height="8" fill="#fff"/></mask><path x="133" y="52" width="480" height="8" fill="rgba(255,255,255,0.08)" d="M137,52 h472 a4,4 0 0 1 4,4 v0 a4,4 0 0 1 -4,4 h-472 a4,4 0 0 1 -4,-4 v0 a4,4 0 0 1 4,-4"/><mask id="satori_om-id-1-1-0"><rect x="133" y="52" width="158" height="8" fill="#fff"/></mask><path x="133" y="52" width="158" height="8" fill="#ffffff" d="M137,52 h150 a4,4 0 0 1 4,4 v0 a4,4 0 0 1 -4,4 h-150 a4,4 0 0 1 -4,-4 v0 a4,4 0 0 1 4,-4"/><mask id="satori_om-id-1-2"><rect x="623" y="48" width="27" height="15" fill="#fff"/></mask><g  ><path fill="rgba(200,200,200,0.6)" d="M626.7 60.1L626.7 60.1Q625.9 60.1 625.2 59.8Q624.5 59.5 624.2 59.0Q623.8 58.5 623.7 57.8L623.7 57.8L624.9 57.8Q624.9 58.2 625.1 58.5Q625.4 58.8 625.8 59.0Q626.2 59.1 626.7 59.1L626.7 59.1Q627.3 59.1 627.7 58.9Q628.1 58.8 628.3 58.4Q628.6 58.1 628.6 57.6L628.6 57.6Q628.6 57.1 628.4 56.8Q628.1 56.4 627.7 56.2Q627.2 56.0 626.6 56.0L626.6 56.0L625.9 56.0L625.9 55.0L626.6 55.0Q627.1 55.0 627.5 54.9Q627.9 54.7 628.1 54.3Q628.3 54.0 628.3 53.6L628.3 53.6Q628.3 53.1 628.1 52.8Q627.9 52.5 627.6 52.3Q627.2 52.1 626.7 52.1L626.7 52.1Q626.3 52.1 625.9 52.3Q625.5 52.4 625.3 52.7Q625.0 53.0 625.0 53.5L625.0 53.5L623.9 53.5Q623.9 52.8 624.3 52.3Q624.7 51.7 625.4 51.4Q626.0 51.2 626.8 51.2L626.8 51.2Q627.6 51.2 628.2 51.5Q628.7 51.8 629.1 52.3Q629.4 52.9 629.4 53.5L629.4 53.5Q629.4 54.2 629.0 54.8Q628.6 55.3 627.9 55.5L627.9 55.5L627.9 55.5Q628.5 55.6 628.9 55.9Q629.3 56.2 629.5 56.6Q629.7 57.1 629.7 57.6L629.7 57.6Q629.7 58.3 629.3 58.9Q628.9 59.5 628.3 59.8Q627.6 60.1 626.7 60.1ZM634.1 60.1L634.1 60.1Q633.3 60.1 632.6 59.8Q632.0 59.5 631.6 59.0Q631.2 58.5 631.1 57.8L631.1 57.8L632.3 57.8Q632.3 58.2 632.6 58.5Q632.8 58.8 633.2 59.0Q633.6 59.1 634.1 59.1L634.1 59.1Q634.7 59.1 635.1 58.9Q635.5 58.8 635.8 58.4Q636.0 58.1 636.0 57.6L636.0 57.6Q636.0 57.1 635.8 56.8Q635.5 56.4 635.1 56.2Q634.6 56.0 634.0 56.0L634.0 56.0L633.3 56.0L633.3 55.0L634.0 55.0Q634.5 55.0 634.9 54.9Q635.3 54.7 635.5 54.3Q635.7 54.0 635.7 53.6L635.7 53.6Q635.7 53.1 635.5 52.8Q635.3 52.5 635.0 52.3Q634.6 52.1 634.1 52.1L634.1 52.1Q633.7 52.1 633.3 52.3Q632.9 52.4 632.7 52.7Q632.4 53.0 632.4 53.5L632.4 53.5L631.3 53.5Q631.4 52.8 631.7 52.3Q632.1 51.7 632.8 51.4Q633.4 51.2 634.2 51.2L634.2 51.2Q635.0 51.2 635.6 51.5Q636.2 51.8 636.5 52.3Q636.8 52.9 636.8 53.5L636.8 53.5Q636.8 54.2 636.4 54.8Q636.0 55.3 635.3 55.5L635.3 55.5L635.3 55.5Q635.9 55.6 636.3 55.9Q636.7 56.2 636.9 56.6Q637.1 57.1 637.1 57.6L637.1 57.6Q637.1 58.3 636.7 58.9Q636.3 59.5 635.7 59.8Q635.0 60.1 634.1 60.1ZM640.9 55.1L640.9 55.1Q640.3 55.1 639.9 54.9Q639.6 54.6 639.4 54.2Q639.2 53.8 639.2 53.4L639.2 53.4L639.2 52.9Q639.2 52.4 639.4 52.0Q639.6 51.6 640.0 51.4Q640.3 51.1 640.9 51.1L640.9 51.1Q641.5 51.1 641.8 51.4Q642.2 51.6 642.4 52.0Q642.6 52.4 642.6 52.9L642.6 52.9L642.6 53.4Q642.6 53.8 642.4 54.2Q642.2 54.6 641.8 54.9Q641.4 55.1 640.9 55.1ZM640.9 54.4L640.9 54.4Q641.3 54.4 641.5 54.1Q641.7 53.7 641.7 53.4L641.7 53.4L641.7 52.9Q641.7 52.5 641.5 52.2Q641.3 51.9 640.9 51.9L640.9 51.9Q640.4 51.9 640.3 52.2Q640.1 52.5 640.1 52.9L640.1 52.9L640.1 53.4Q640.1 53.7 640.3 54.1Q640.4 54.4 640.9 54.4ZM646.6 60.2L646.6 60.2Q646.0 60.2 645.6 59.9Q645.2 59.7 645.0 59.3Q644.8 58.9 644.8 58.4L644.8 58.4L644.8 57.9Q644.8 57.5 645.0 57.1Q645.2 56.7 645.6 56.4Q646.0 56.2 646.6 56.2L646.6 56.2Q647.1 56.2 647.5 56.4Q647.9 56.7 648.1 57.1Q648.3 57.5 648.3 57.9L648.3 57.9L648.3 58.4Q648.3 58.9 648.1 59.3Q647.9 59.7 647.5 59.9Q647.1 60.2 646.6 60.2ZM646.6 59.4L646.6 59.4Q647 59.4 647.2 59.1Q647.4 58.8 647.4 58.4L647.4 58.4L647.4 57.9Q647.4 57.6 647.2 57.2Q647.0 56.9 646.6 56.9L646.6 56.9Q646.1 56.9 645.9 57.2Q645.7 57.6 645.7 57.9L645.7 57.9L645.7 58.4Q645.7 58.8 645.9 59.1Q646.1 59.4 646.6 59.4ZM641.2 60L640.2 60L646.2 51.3L647.2 51.3L641.2 60Z "/></g><mask id="satori_om-id-2"><rect x="33" y="73" width="694" height="15" fill="#fff"/></mask><mask id="satori_om-id-2-0"><rect x="33" y="73" width="90" height="15" fill="#fff"/></mask><g  ><path fill="rgba(220,220,220,0.8)" d="M35.6 85L33.8 85L33.8 76.3L35.6 76.3L35.6 79.8L39.4 79.8L39.4 76.3L41.2 76.3L41.2 85L39.4 85L39.4 81.3L35.6 81.3L35.6 85ZM45.1 77.8L42.4 77.8L42.4 76.3L49.5 76.3L49.5 77.8L46.9 77.8L46.9 85L45.1 85L45.1 77.8ZM52.5 85L50.8 85L50.8 76.3L53.5 76.3L54.9 80.3Q55.0 80.6 55.1 81.0Q55.2 81.4 55.4 82.0L55.4 82.0Q55.5 82.5 55.6 82.9L55.6 82.9Q55.7 82.5 55.8 82.0L55.8 82.0Q55.9 81.5 56.0 81.0Q56.1 80.6 56.2 80.3L56.2 80.3L57.6 76.3L60.4 76.3L60.4 85L58.6 85L58.6 80.9Q58.6 80.6 58.6 80.2Q58.6 79.7 58.6 79.2Q58.6 78.8 58.6 78.3L58.6 78.3Q58.6 78.0 58.6 77.8L58.6 77.8Q58.6 78.1 58.5 78.3L58.5 78.3Q58.4 78.8 58.2 79.3Q58.1 79.8 58.0 80.2Q57.9 80.6 57.8 80.9L57.8 80.9L56.3 85L54.8 85L53.3 80.9Q53.3 80.6 53.1 80.2Q53.0 79.8 52.9 79.3Q52.7 78.8 52.6 78.3L52.6 78.3Q52.5 78.1 52.5 77.9L52.5 77.9Q52.5 78.0 52.5 78.2L52.5 78.2Q52.5 78.7 52.5 79.2Q52.5 79.7 52.5 80.2Q52.5 80.6 52.5 80.9L52.5 80.9L52.5 85ZM67.5 85L61.9 85L61.9 76.3L63.7 76.3L63.7 83.5L67.5 83.5L67.5 85Z "/></g><mask id="satori_om-id-2-1"><rect x="133" y="77" width="480" height="8" fill="#fff"/></mask><path x="133" y="77" width="480" height="8" fill="rgba(255,255,255,0.08)" d="M137,77 h472 a4,4 0 0 1 4,4 v0 a4,4 0 0 1 -4,4 h-472 a4,4 0 0 1 -4,-4 v0 a4,4 0 0 1 4,-4"/><mask id="satori_om-id-2-1-0"><rect x="133" y="77" width="38" height="8" fill="#fff"/></mask><path x="133" y="77" width="38" height="8" fill="#ffffff" d="M137,77 h30 a4,4 0 0 1 4,4 v0 a4,4 0 0 1 -4,4 h-30 a4,4 0 0 1 -4,-4 v0 a4,4 0 0 1 4,-4"/><mask id="satori_om-id-2-2"><rect x="623" y="73" width="20" height="15" fill="#fff"/></mask><g  ><path fill="rgba(200,200,200,0.6)" d="M626.7 85.1L626.7 85.1Q625.8 85.1 625.1 84.8Q624.5 84.5 624.1 83.9Q623.7 83.4 623.7 82.7L623.7 82.7Q623.7 82.1 623.9 81.7Q624.2 81.2 624.5 80.9Q624.9 80.6 625.4 80.5L625.4 80.5L625.4 80.4Q624.8 80.3 624.4 79.7Q624.0 79.2 624.0 78.5L624.0 78.5Q624.0 77.8 624.4 77.3Q624.7 76.8 625.3 76.5Q625.9 76.2 626.7 76.2L626.7 76.2Q627.5 76.2 628.1 76.5Q628.7 76.8 629.0 77.3Q629.4 77.8 629.4 78.5L629.4 78.5Q629.4 79.2 629.0 79.7Q628.6 80.3 628.0 80.4L628.0 80.4L628.0 80.5Q628.5 80.6 628.9 80.9Q629.3 81.2 629.5 81.7Q629.7 82.1 629.7 82.7L629.7 82.7Q629.7 83.4 629.3 83.9Q628.9 84.5 628.3 84.8Q627.6 85.1 626.7 85.1ZM626.7 84.2L626.7 84.2Q627.3 84.2 627.7 84.0Q628.1 83.8 628.4 83.4Q628.6 83.1 628.6 82.6L628.6 82.6Q628.6 82.1 628.3 81.8Q628.1 81.4 627.7 81.2Q627.2 81.0 626.7 81.0L626.7 81.0Q626.2 81.0 625.7 81.2Q625.3 81.4 625.1 81.8Q624.8 82.1 624.8 82.6L624.8 82.6Q624.8 83.1 625.0 83.4Q625.3 83.8 625.7 84.0Q626.1 84.2 626.7 84.2ZM626.7 80.0L626.7 80.0Q627.2 80.0 627.5 79.8Q627.9 79.7 628.1 79.3Q628.3 79.0 628.3 78.6L628.3 78.6Q628.3 78.1 628.1 77.8Q627.9 77.5 627.5 77.3Q627.2 77.1 626.7 77.1L626.7 77.1Q626.2 77.1 625.9 77.3Q625.5 77.5 625.3 77.8Q625.1 78.1 625.1 78.6L625.1 78.6Q625.1 79.0 625.3 79.3Q625.5 79.7 625.9 79.8Q626.2 80.0 626.7 80.0ZM633.5 80.1L633.5 80.1Q632.9 80.1 632.5 79.9Q632.2 79.6 632.0 79.2Q631.8 78.8 631.8 78.4L631.8 78.4L631.8 77.9Q631.8 77.4 632.0 77.0Q632.2 76.6 632.6 76.4Q632.9 76.1 633.5 76.1L633.5 76.1Q634.1 76.1 634.4 76.4Q634.8 76.6 635 77.0Q635.2 77.4 635.2 77.9L635.2 77.9L635.2 78.4Q635.2 78.8 635.0 79.2Q634.8 79.6 634.4 79.9Q634.0 80.1 633.5 80.1ZM633.5 79.4L633.5 79.4Q633.9 79.4 634.1 79.1Q634.3 78.7 634.3 78.4L634.3 78.4L634.3 77.9Q634.3 77.5 634.1 77.2Q633.9 76.9 633.5 76.9L633.5 76.9Q633.0 76.9 632.9 77.2Q632.7 77.5 632.7 77.9L632.7 77.9L632.7 78.4Q632.7 78.7 632.9 79.1Q633.0 79.4 633.5 79.4ZM639.2 85.2L639.2 85.2Q638.6 85.2 638.2 84.9Q637.8 84.7 637.6 84.3Q637.4 83.9 637.4 83.4L637.4 83.4L637.4 82.9Q637.4 82.5 637.6 82.1Q637.8 81.7 638.2 81.4Q638.6 81.2 639.2 81.2L639.2 81.2Q639.7 81.2 640.1 81.4Q640.5 81.7 640.7 82.1Q640.9 82.5 640.9 82.9L640.9 82.9L640.9 83.4Q640.9 83.9 640.7 84.3Q640.5 84.7 640.1 84.9Q639.7 85.2 639.2 85.2ZM639.2 84.4L639.2 84.4Q639.6 84.4 639.8 84.1Q640.0 83.8 640.0 83.4L640.0 83.4L640.0 82.9Q640.0 82.6 639.8 82.2Q639.6 81.9 639.2 81.9L639.2 81.9Q638.7 81.9 638.5 82.2Q638.3 82.6 638.3 82.9L638.3 82.9L638.3 83.4Q638.3 83.8 638.5 84.1Q638.7 84.4 639.2 84.4ZM633.8 85L632.8 85L638.8 76.3L639.8 76.3L633.8 85Z "/></g></svg>